<svg width="800" height="145" viewBox="0 0 800 145" fill="none" xmlns="http://www.w3.org/2000/svg">
<path d="M255.992 12.0368C253.104 14.5916 251.66 17.8684 251.66 21.8672C251.66 25.8661 253.104 29.1429 255.992 31.6977C258.88 34.2525 262.629 35.5299 267.239 35.5299C271.848 35.5299 275.597 34.2525 278.485 31.6977C281.373 29.1429 282.817 25.8661 282.817 21.8672C282.817 17.8684 281.373 14.5916 278.485 12.0368C275.597 9.48195 271.848 8.20454 267.239 8.20454C262.629 8.20454 258.88 9.48195 255.992 12.0368Z" fill="#E8395A"/>
<path d="M281.485 135.251H253.326V45.1104H281.485V135.251Z" fill="#1D9FDB"/>
<path d="M342.467 136.917C328.637 136.917 317.446 132.807 308.893 124.587C300.34 116.312 296.064 105.565 296.064 92.3467V90.014C296.064 80.7945 297.758 72.658 301.146 65.6045C304.589 58.551 309.587 53.1081 316.141 49.2759C322.695 45.3881 330.47 43.4443 339.468 43.4443C352.131 43.4443 362.128 47.3876 369.459 55.2741C376.79 63.1052 380.456 74.0465 380.456 88.0979V99.0114H324.639C325.638 104.065 327.832 108.037 331.22 110.925C334.608 113.813 338.996 115.257 344.383 115.257C353.269 115.257 360.212 112.146 365.21 105.926L378.04 121.088C374.541 125.92 369.57 129.78 363.127 132.668C356.74 135.501 349.854 136.917 342.467 136.917ZM339.301 65.1046C331.081 65.1046 326.194 70.5475 324.639 81.4332H352.964V79.2672C353.075 74.7685 351.936 71.2973 349.548 68.8535C347.16 66.3543 343.744 65.1046 339.301 65.1046Z" fill="#1D9FDB"/>
<path d="M426.609 101.844L440.855 45.1104H470.429L441.021 135.251H412.363L382.955 45.1104H412.613L426.609 101.844Z" fill="#1D9FDB"/>
<path d="M521.248 136.917C507.419 136.917 496.227 132.807 487.674 124.587C479.121 116.312 474.845 105.565 474.845 92.3467V90.014C474.845 80.7945 476.539 72.658 479.927 65.6045C483.37 58.551 488.369 53.1081 494.922 49.2759C501.476 45.3881 509.251 43.4443 518.249 43.4443C530.912 43.4443 540.909 47.3876 548.24 55.2741C555.571 63.1052 559.237 74.0465 559.237 88.0979V99.0114H503.42C504.42 104.065 506.613 108.037 510.001 110.925C513.389 113.813 517.777 115.257 523.164 115.257C532.05 115.257 538.993 112.146 543.991 105.926L556.821 121.088C553.322 125.92 548.351 129.78 541.909 132.668C535.522 135.501 528.635 136.917 521.248 136.917ZM518.082 65.1046C509.862 65.1046 504.975 70.5475 503.42 81.4332H531.745V79.2672C531.856 74.7685 530.717 71.2973 528.329 68.8535C525.941 66.3543 522.525 65.1046 518.082 65.1046Z" fill="#1D9FDB"/>
<path d="M596.393 45.1104L597.309 55.6907C603.53 47.5264 612.11 43.4443 623.052 43.4443C632.438 43.4443 639.436 46.249 644.046 51.8585C648.711 57.468 651.127 65.9099 651.293 77.1844V135.251H623.135V78.3508C623.135 73.7965 622.219 70.4642 620.386 68.3537C618.553 66.1876 615.221 65.1046 610.389 65.1046C604.89 65.1046 600.808 67.2706 598.142 71.6027V135.251H570.067V45.1104H596.393Z" fill="#1D9FDB"/>
<path d="M699.613 22.7003V45.1104H714.442V64.6048H699.613V105.843C699.613 109.231 700.224 111.591 701.445 112.924C702.667 114.257 705.083 114.923 708.693 114.923C711.47 114.923 713.803 114.757 715.691 114.424V134.501C710.637 136.112 705.361 136.917 699.863 136.917C690.199 136.917 683.062 134.64 678.452 130.086C673.842 125.531 671.537 118.617 671.537 109.342V64.6048H660.041V45.1104H671.537V22.7003H699.613Z" fill="#1D9FDB"/>
<path d="M772.758 109.925C772.758 107.537 771.508 105.621 769.009 104.177C766.51 102.733 761.761 101.233 754.763 99.6779C747.765 98.1228 741.989 96.0956 737.435 93.5963C732.881 91.0415 729.41 87.9591 727.021 84.349C724.633 80.7389 723.439 76.6013 723.439 71.936C723.439 63.6606 726.855 56.857 733.686 51.5252C740.517 46.1379 749.459 43.4443 760.512 43.4443C772.397 43.4443 781.95 46.1379 789.17 51.5252C796.39 56.9126 800 63.9938 800 72.769H771.842C771.842 65.5489 768.037 61.9389 760.428 61.9389C757.485 61.9389 755.013 62.772 753.014 64.4381C751.014 66.0488 750.015 68.076 750.015 70.5197C750.015 73.019 751.236 75.0462 753.68 76.6013C756.124 78.1564 760.012 79.4338 765.343 80.4335C770.731 81.4332 775.452 82.6273 779.506 84.0158C793.058 88.6811 799.833 97.0397 799.833 109.092C799.833 117.312 796.168 124.004 788.837 129.169C781.561 134.334 772.119 136.917 760.512 136.917C752.792 136.917 745.905 135.529 739.851 132.752C733.797 129.975 729.076 126.198 725.688 121.422C722.3 116.645 720.607 111.619 720.607 106.343H746.849C746.96 110.508 748.348 113.563 751.014 115.507C753.68 117.395 757.096 118.339 761.261 118.339C765.094 118.339 767.954 117.562 769.842 116.006C771.786 114.451 772.758 112.424 772.758 109.925Z" fill="#1D9FDB"/>
<path d="M184.232 67.6731H156.861C154.374 67.6731 152.352 69.6949 152.352 72.1838C152.352 74.6769 154.374 76.6987 156.861 76.6987H184.232C186.727 76.6987 188.747 74.6769 188.747 72.1838C188.747 69.6949 186.727 67.6731 184.232 67.6731Z" fill="#E8395A"/>
<path d="M185.252 110.543L157.878 104.209C155.453 103.641 153.028 105.155 152.468 107.589C151.904 110.012 153.419 112.434 155.844 112.997L183.215 119.334C183.556 119.413 183.899 119.453 184.236 119.453C186.29 119.453 188.148 118.041 188.632 115.953C189.193 113.529 187.681 111.108 185.252 110.543Z" fill="#E8395A"/>
<path d="M156.857 40.2805C157.196 40.2805 157.535 40.2421 157.878 40.1632L185.252 33.8269C187.681 33.2639 189.193 30.8411 188.63 28.412C188.067 25.985 185.648 24.4707 183.215 25.0338L155.844 31.3701C153.419 31.931 151.904 34.358 152.468 36.785C152.952 38.8708 154.805 40.2805 156.857 40.2805Z" fill="#E8395A"/>
<path d="M99.4888 0C98.7189 0 97.949 0.074647 97.1919 0.181283C90.7042 0.595029 70.71 2.43129 50.4301 9.97682C17.437 22.2484 0 43.7121 0 72.0515V72.3181C0 100.658 17.437 122.125 50.4301 134.391C70.7058 141.936 90.6957 143.772 97.1855 144.188C97.9469 144.297 98.7125 144.37 99.4888 144.37C117.979 144.37 131.921 113.337 131.921 72.1838C131.921 31.0331 117.979 0 99.4888 0ZM99.4888 135.346C88.4201 135.346 76.0887 109.406 76.0887 72.1838C76.0887 34.9637 88.4201 9.02564 99.4888 9.02564C110.562 9.02564 122.895 34.9637 122.895 72.1838C122.895 109.406 110.564 135.346 99.4888 135.346Z" fill="#1D9FDB"/>
</svg>
